<?xml version="1.0" encoding="UTF-8" standalone="no"?>
<svg
   xmlns:dc="http://purl.org/dc/elements/1.1/"
   xmlns:cc="http://creativecommons.org/ns#"
   xmlns:rdf="http://www.w3.org/1999/02/22-rdf-syntax-ns#"
   xmlns:svg="http://www.w3.org/2000/svg"
   xmlns="http://www.w3.org/2000/svg"
   xmlns:sodipodi="http://sodipodi.sourceforge.net/DTD/sodipodi-0.dtd"
   xmlns:inkscape="http://www.inkscape.org/namespaces/inkscape"
   width="240px"
   height="64px"
   viewBox="0 0 240 64"
   version="1.1"
   id="svg8"
   sodipodi:docname="logo.svg"
   inkscape:version="0.92.3 (2405546, 2018-03-11)">
  <metadata
     id="metadata14">
    <rdf:RDF>
      <cc:Work
         rdf:about="">
        <dc:format>image/svg+xml</dc:format>
        <dc:type
           rdf:resource="http://purl.org/dc/dcmitype/StillImage" />
      </cc:Work>
    </rdf:RDF>
  </metadata>
  <defs
     id="defs12" />
  <sodipodi:namedview
     pagecolor="#ffffff"
     bordercolor="#666666"
     borderopacity="1"
     objecttolerance="10"
     gridtolerance="10"
     guidetolerance="10"
     inkscape:pageopacity="0"
     inkscape:pageshadow="2"
     inkscape:window-width="1499"
     inkscape:window-height="1123"
     id="namedview10"
     showgrid="false"
     inkscape:zoom="1.425"
     inkscape:cx="-10.526316"
     inkscape:cy="32"
     inkscape:window-x="139"
     inkscape:window-y="569"
     inkscape:window-maximized="0"
     inkscape:current-layer="logo" />
  <title
     id="title2">logo</title>
  <g
     id="Page-1"
     stroke="none"
     stroke-width="1"
     fill="none"
     fill-rule="evenodd">
    <g
       id="logo"
       transform="translate(2.000000, 0.000000)"
       fill-rule="nonzero">
      <g
         aria-label="CyCAT.org"
         style="font-style:normal;font-variant:normal;font-weight:bold;font-stretch:normal;font-size:43.37940598px;line-height:1.25;font-family:'Noto Serif';-inkscape-font-specification:'Noto Serif, Bold';font-variant-ligatures:normal;font-variant-caps:normal;font-variant-numeric:normal;font-feature-settings:normal;text-align:start;letter-spacing:0px;word-spacing:0px;writing-mode:lr-tb;text-anchor:start;fill:#000000;fill-opacity:1;stroke:none;stroke-width:1.08448505"
         id="text1374">
        <path
           d="m 20.823311,46.5296 q -5.032011,0 -8.372226,-1.995452 -3.3402138,-1.995453 -4.9886312,-5.552564 -1.6484175,-3.600491 -1.6484175,-8.415605 0,-4.684976 1.6917969,-8.242087 1.6917968,-3.600491 4.9886318,-5.595944 3.340214,-2.038832 8.285466,-2.038832 4.988632,0 7.417879,1.4749 2.472626,1.43152 2.472626,3.557111 0,1.648418 -1.388141,2.732903 -1.388141,1.041106 -4.034285,1.041106 0,-1.431521 -0.433794,-2.819662 -0.433794,-1.388141 -1.518279,-2.299108 -1.041106,-0.910968 -2.819661,-0.910968 -4.121044,0 -5.769461,3.426973 -1.605038,3.383594 -1.605038,9.673608 0,6.290014 1.952073,9.413331 1.995452,3.079938 6.810567,3.079938 2.12559,0 3.64387,-0.607312 1.518279,-0.650691 2.559385,-1.561659 1.084485,-0.954347 1.821935,-1.952073 0.73745,0.607312 0.73745,1.865315 0,1.214623 -0.910968,2.559385 -0.910967,1.301382 -3.079938,2.255729 -2.125591,0.910967 -5.81284,0.910967 z"
           style="fill:#2e3436"
           id="path1388" />
        <path
           d="m 33.575501,56.506864 v -2.516006 q 2.993179,0 4.858493,-0.954347 1.865314,-0.954347 2.9498,-2.689523 1.084485,-1.735176 1.778555,-4.034285 L 35.354056,27.225765 Q 34.876883,26.0979 34.182812,25.794244 33.488742,25.447209 32.577774,25.403829 h -0.173517 v -2.559384 h 12.36313 v 2.299108 h -0.130138 q -1.214623,0 -1.908694,0.347035 -0.69407,0.347036 -0.69407,1.258003 0,0.347035 0.130138,0.867588 0.173518,0.520553 0.303656,0.824209 l 2.993179,7.938431 q 0.607311,1.648418 0.867588,2.689523 0.260276,1.041106 0.347035,1.908694 0.04338,-0.910967 0.433794,-1.995452 0.390415,-1.127865 0.520553,-1.4749 l 2.863041,-8.502364 q 0.173517,-0.433794 0.303656,-1.084485 0.130138,-0.650691 0.130138,-1.041106 0,-0.954347 -0.780829,-1.301382 -0.78083,-0.390415 -2.21235,-0.433794 h -0.173518 v -2.299108 h 9.760367 v 2.299108 h -0.173518 q -1.214623,0.04338 -1.952073,0.73745 -0.694071,0.69407 -1.344762,2.429247 l -6.55029,17.785556 q -1.127865,3.166697 -2.16897,5.162149 -0.997727,2.038833 -2.342488,3.166697 -1.344762,1.171244 -3.426973,1.605038 -2.038833,0.477174 -5.248909,0.477174 z"
           style="fill:#2e3436"
           id="path1390" />
        <path
           d="m 74.878117,46.5296 q -5.032012,0 -8.372226,-1.995452 -3.340214,-1.995453 -4.988631,-5.552564 -1.648418,-3.600491 -1.648418,-8.415605 0,-4.684976 1.691797,-8.242087 1.691797,-3.600491 4.988632,-5.595944 3.340214,-2.038832 8.285466,-2.038832 4.988632,0 7.417879,1.4749 2.472626,1.43152 2.472626,3.557111 0,1.648418 -1.388141,2.732903 -1.388141,1.041106 -4.034285,1.041106 0,-1.431521 -0.433794,-2.819662 -0.433794,-1.388141 -1.518279,-2.299108 -1.041106,-0.910968 -2.819662,-0.910968 -4.121043,0 -5.769461,3.426973 -1.605038,3.383594 -1.605038,9.673608 0,6.290014 1.952074,9.413331 1.995452,3.079938 6.810566,3.079938 2.125591,0 3.64387,-0.607312 1.51828,-0.650691 2.559385,-1.561659 1.084486,-0.954347 1.821935,-1.952073 0.73745,0.607312 0.73745,1.865315 0,1.214623 -0.910967,2.559385 -0.910968,1.301382 -3.079938,2.255729 -2.125591,0.910967 -5.81284,0.910967 z"
           style="fill:#2e3436"
           id="path1392" />
        <path
           d="m 86.632578,46.095806 v -2.299108 h 0.520553 q 1.171244,0 1.952073,-0.607312 0.824209,-0.607312 1.518279,-2.559385 L 100.03681,15.12291 h 5.94298 l 9.0663,25.55047 q 0.65069,1.821935 1.43152,2.472627 0.82421,0.650691 1.86531,0.650691 h 0.78083 v 2.299108 h -14.3152 v -2.299108 h 1.6918 q 0.65069,0 1.258,-0.390415 0.60731,-0.390415 0.60731,-1.301382 0,-0.520553 -0.13014,-0.997727 -0.13014,-0.520552 -0.26027,-0.867588 l -1.51828,-4.33794 H 95.915771 l -1.258003,3.730629 q -0.173517,0.520553 -0.347035,1.258002 -0.173518,0.694071 -0.173518,1.214624 0,0.867588 0.607312,1.301382 0.607312,0.390415 1.344762,0.390415 h 1.821935 v 2.299108 z m 10.19416,-12.840304 h 8.762642 l -2.29911,-7.114223 q -0.43379,-1.474899 -0.99773,-3.296834 -0.52055,-1.821936 -0.86758,-3.340215 -0.39042,1.388141 -0.95435,3.166697 -0.563934,1.735176 -1.084487,3.253455 z"
           style="fill:#2e3436"
           id="path1394" />
        <path
           d="m 123.21701,46.095806 v -2.299108 h 1.82194 q 0.95434,0 1.56165,-0.477174 0.6507,-0.477173 0.6507,-2.342488 V 17.769054 h -3.47036 q -1.95207,0 -2.68952,0.824209 -0.73745,0.824208 -0.91097,2.255729 l -0.30365,2.689523 h -2.90642 l 0.21689,-8.415605 h 27.02537 l 0.2169,8.415605 h -2.90642 l -0.30366,-2.689523 q -0.17351,-1.431521 -0.91096,-2.255729 -0.73745,-0.824209 -2.68953,-0.824209 h -3.47035 v 23.207982 q 0,1.865315 0.60731,2.342488 0.65069,0.477174 1.60504,0.477174 h 1.82194 v 2.299108 z"
           style="fill:#2e3436"
           id="path1396" />
        <path
           d="m 151.21163,46.442841 q -1.51828,0 -2.55938,-0.73745 -0.99773,-0.780829 -0.99773,-2.732902 0,-1.995453 0.99773,-2.732903 1.0411,-0.73745 2.55938,-0.73745 1.43152,0 2.47263,0.73745 1.08449,0.73745 1.08449,2.732903 0,1.952073 -1.08449,2.732902 -1.04111,0.73745 -2.47263,0.73745 z"
           style="font-style:normal;font-variant:normal;font-weight:bold;font-stretch:normal;font-size:43.37940598px;font-family:'Noto Serif';-inkscape-font-specification:'Noto Serif, Bold';font-variant-ligatures:normal;font-variant-caps:normal;font-variant-numeric:normal;font-feature-settings:normal;text-align:start;writing-mode:lr-tb;text-anchor:start;fill:#ef2929;stroke-width:1.08448505"
           id="path1398" />
        <path
           d="m 170.85911,46.5296 q -5.20553,0 -8.1987,-2.993179 -2.99318,-3.036558 -2.99318,-9.153054 0,-6.116497 2.86304,-9.109676 2.86304,-2.993179 8.45898,-2.993179 5.20553,0 8.19871,2.993179 2.99318,2.993179 2.99318,9.109676 0,6.116496 -2.90642,9.153054 -2.86304,2.993179 -8.41561,2.993179 z m 0.0868,-2.732902 q 2.51601,0 3.51373,-2.385868 0.99773,-2.429246 0.99773,-7.027463 0,-4.641597 -1.04111,-6.984085 -0.99772,-2.342488 -3.51373,-2.342488 -2.516,0 -3.51373,2.342488 -0.99773,2.342488 -0.99773,6.984085 0,4.598217 0.99773,7.027463 1.04111,2.385868 3.55711,2.385868 z"
           style="font-style:normal;font-variant:normal;font-weight:bold;font-stretch:normal;font-size:43.37940598px;font-family:'Noto Serif';-inkscape-font-specification:'Noto Serif, Bold';font-variant-ligatures:normal;font-variant-caps:normal;font-variant-numeric:normal;font-feature-settings:normal;text-align:start;writing-mode:lr-tb;text-anchor:start;fill:#ef2929;stroke-width:1.08448505"
           id="path1400" />
        <path
           d="m 185.09977,46.095806 v -2.299108 h 0.13014 q 1.4749,0 2.38587,-0.520553 0.95435,-0.563933 0.95435,-2.602765 V 28.093353 q 0,-1.908694 -0.86759,-2.429247 -0.82421,-0.520553 -2.25573,-0.520553 h -0.13014 v -2.299108 h 8.76264 l 0.86759,3.383593 h 0.2169 q 0.86758,-1.952073 2.16897,-2.90642 1.30138,-0.997726 3.94752,-0.997726 4.98863,0 4.98863,3.513732 0,1.995452 -1.4749,3.123317 -1.43152,1.084485 -4.03428,1.084485 0,-1.778556 -0.47717,-2.689523 -0.4338,-0.910968 -1.64842,-0.910968 -1.12787,0 -1.82194,0.78083 -0.69407,0.780829 -1.0411,1.952073 -0.34704,1.127864 -0.47718,2.299108 -0.13013,1.171244 -0.13013,1.908694 v 7.504637 q 0,1.908694 0.86758,2.429247 0.86759,0.477174 2.16897,0.477174 h 1.38814 v 2.299108 z"
           style="font-style:normal;font-variant:normal;font-weight:bold;font-stretch:normal;font-size:43.37940598px;font-family:'Noto Serif';-inkscape-font-specification:'Noto Serif, Bold';font-variant-ligatures:normal;font-variant-caps:normal;font-variant-numeric:normal;font-feature-settings:normal;text-align:start;writing-mode:lr-tb;text-anchor:start;fill:#ef2929;stroke-width:1.08448505"
           id="path1402" />
        <path
           d="m 217.17613,56.506864 q -10.15078,0 -10.15078,-6.029738 0,-2.299108 1.51828,-3.557111 1.51828,-1.258003 4.33794,-1.4749 -1.17124,-0.477173 -2.16897,-1.388141 -0.99773,-0.954347 -0.99773,-2.472626 0,-1.43152 1.08449,-2.472626 1.08448,-1.084485 2.77628,-2.082212 -1.90869,-0.69407 -3.1667,-2.385867 -1.258,-1.691797 -1.258,-4.337941 0,-3.817387 2.21235,-5.899599 2.21235,-2.125591 6.85395,-2.125591 1.51828,0 2.81966,0.390415 1.34476,0.390415 2.34249,0.954347 1.12786,-1.214624 2.16897,-1.821935 1.0411,-0.607312 2.34248,-0.607312 1.56166,0 2.34249,0.73745 0.78083,0.73745 0.78083,1.735176 0,0.997727 -0.65069,1.735176 -0.65069,0.73745 -2.42925,0.73745 0,-0.867588 -0.52055,-1.344761 -0.52055,-0.477174 -1.12786,-0.477174 -0.86759,0 -1.43152,0.477174 0.86758,0.997726 1.4749,2.472626 0.65069,1.43152 0.65069,3.036558 0,3.296835 -2.12559,5.465805 -2.1256,2.125591 -6.63705,2.125591 -0.47718,0 -1.30139,-0.04338 -0.8242,-0.04338 -1.21462,-0.08676 -0.60731,0.260277 -1.08448,0.867588 -0.47718,0.563933 -0.47718,1.344762 0,0.73745 0.56393,1.084485 0.56394,0.303656 1.4749,0.303656 h 5.24891 q 4.33794,0 6.3334,1.778556 1.99545,1.735176 1.99545,4.858493 0,3.990905 -3.07994,6.246634 -3.07994,2.25573 -9.50009,2.25573 z m 0.91097,-21.169151 q 1.73517,0 2.34249,-1.344761 0.60731,-1.388141 0.60731,-3.730629 0,-2.385867 -0.65069,-3.860767 -0.60732,-1.518279 -2.34249,-1.518279 -1.6918,0 -2.34249,1.518279 -0.65069,1.518279 -0.65069,3.904146 0,2.255729 0.65069,3.64387 0.69407,1.388141 2.38587,1.388141 z m -0.82421,18.566386 q 3.81739,0 5.55256,-1.084485 1.73518,-1.084485 1.73518,-3.253455 0,-1.388141 -0.86759,-1.952074 -0.86759,-0.520553 -2.64614,-0.520553 h -5.03201 q -0.86759,0 -1.77856,0.216897 -0.86759,0.260277 -1.4749,0.954347 -0.60731,0.694071 -0.60731,2.125591 0,3.513732 5.11877,3.513732 z"
           style="font-style:normal;font-variant:normal;font-weight:bold;font-stretch:normal;font-size:43.37940598px;font-family:'Noto Serif';-inkscape-font-specification:'Noto Serif, Bold';font-variant-ligatures:normal;font-variant-caps:normal;font-variant-numeric:normal;font-feature-settings:normal;text-align:start;writing-mode:lr-tb;text-anchor:start;fill:#ef2929;stroke-width:1.08448505"
           id="path1404" />
      </g>
      <flowRoot
         xml:space="preserve"
         id="flowRoot1380"
         style="fill:black;fill-opacity:1;stroke:none;font-family:sans-serif;font-style:normal;font-weight:normal;font-size:40px;line-height:1.25;letter-spacing:0px;word-spacing:0px"><flowRegion
           id="flowRegion1382"><rect
             id="rect1384"
             width="242.10527"
             height="59.649124"
             x="-13.333333"
             y="122.24561" /></flowRegion><flowPara
           id="flowPara1386"></flowPara></flowRoot>    </g>
  </g>
</svg>
